<mxfile host="app.diagrams.net" modified="2021-01-07T03:30:19.609Z" agent="5.0 (Macintosh; Intel Mac OS X 11_0_0) AppleWebKit/537.36 (KHTML, like Gecko) Chrome/87.0.4280.88 Safari/537.36" etag="5LvSYrYdYL5YlWXznS-V" version="14.1.3" type="github">
  <diagram id="Hs13dnjIaAIShmFf6Qo-" name="第 1 页">
    <mxGraphModel dx="1186" dy="536" grid="0" gridSize="10" guides="1" tooltips="1" connect="1" arrows="1" fold="1" page="1" pageScale="1" pageWidth="827" pageHeight="1169" math="0" shadow="0">
      <root>
        <mxCell id="0" />
        <mxCell id="1" parent="0" />
        <mxCell id="yiPBfoOaf0CJgp_YEPqx-1" value="" style="verticalLabelPosition=bottom;verticalAlign=top;html=1;shape=mxgraph.basic.polygon;polyCoords=[[0.25,0],[0.75,0],[1,0.25],[1,0.75],[0.75,1],[0.25,1],[0,0.75],[0,0.25]];polyline=0;" vertex="1" parent="1">
          <mxGeometry x="321" y="80" width="100" height="100" as="geometry" />
        </mxCell>
        <mxCell id="yiPBfoOaf0CJgp_YEPqx-2" value="DNS" style="text;html=1;strokeColor=none;fillColor=none;align=center;verticalAlign=middle;whiteSpace=wrap;rounded=0;" vertex="1" parent="1">
          <mxGeometry x="351" y="120" width="40" height="20" as="geometry" />
        </mxCell>
        <mxCell id="yiPBfoOaf0CJgp_YEPqx-3" value="" style="verticalLabelPosition=bottom;verticalAlign=top;html=1;shape=mxgraph.basic.plaque;dx=6;" vertex="1" parent="1">
          <mxGeometry x="135" y="204" width="100" height="60" as="geometry" />
        </mxCell>
        <mxCell id="yiPBfoOaf0CJgp_YEPqx-4" value="SLB" style="text;html=1;strokeColor=none;fillColor=none;align=center;verticalAlign=middle;whiteSpace=wrap;rounded=0;" vertex="1" parent="1">
          <mxGeometry x="165" y="224" width="40" height="20" as="geometry" />
        </mxCell>
        <mxCell id="yiPBfoOaf0CJgp_YEPqx-5" value="" style="verticalLabelPosition=bottom;verticalAlign=top;html=1;shape=mxgraph.basic.plaque;dx=6;" vertex="1" parent="1">
          <mxGeometry x="496" y="204" width="100" height="60" as="geometry" />
        </mxCell>
        <mxCell id="yiPBfoOaf0CJgp_YEPqx-6" value="ELB" style="text;html=1;strokeColor=none;fillColor=none;align=center;verticalAlign=middle;whiteSpace=wrap;rounded=0;" vertex="1" parent="1">
          <mxGeometry x="526" y="224" width="40" height="20" as="geometry" />
        </mxCell>
        <mxCell id="yiPBfoOaf0CJgp_YEPqx-7" value="网关" style="rounded=1;whiteSpace=wrap;html=1;" vertex="1" parent="1">
          <mxGeometry x="135" y="293" width="105" height="58" as="geometry" />
        </mxCell>
        <mxCell id="yiPBfoOaf0CJgp_YEPqx-8" value="网关" style="rounded=1;whiteSpace=wrap;html=1;" vertex="1" parent="1">
          <mxGeometry x="496" y="293" width="105" height="58" as="geometry" />
        </mxCell>
        <mxCell id="yiPBfoOaf0CJgp_YEPqx-10" value="" style="rounded=1;whiteSpace=wrap;html=1;" vertex="1" parent="1">
          <mxGeometry x="81" y="370" width="201" height="360" as="geometry" />
        </mxCell>
        <mxCell id="yiPBfoOaf0CJgp_YEPqx-11" value="后端应用" style="rounded=1;whiteSpace=wrap;html=1;" vertex="1" parent="1">
          <mxGeometry x="90" y="387" width="80" height="48" as="geometry" />
        </mxCell>
        <mxCell id="yiPBfoOaf0CJgp_YEPqx-12" value="前端应用" style="rounded=1;whiteSpace=wrap;html=1;" vertex="1" parent="1">
          <mxGeometry x="184" y="387" width="80" height="48" as="geometry" />
        </mxCell>
        <mxCell id="yiPBfoOaf0CJgp_YEPqx-13" value="eureka" style="rounded=1;whiteSpace=wrap;html=1;" vertex="1" parent="1">
          <mxGeometry x="90" y="448" width="80" height="48" as="geometry" />
        </mxCell>
        <mxCell id="yiPBfoOaf0CJgp_YEPqx-14" value="apollo" style="rounded=1;whiteSpace=wrap;html=1;" vertex="1" parent="1">
          <mxGeometry x="184" y="448" width="80" height="48" as="geometry" />
        </mxCell>
        <mxCell id="yiPBfoOaf0CJgp_YEPqx-15" value="rocketmq" style="rounded=1;whiteSpace=wrap;html=1;" vertex="1" parent="1">
          <mxGeometry x="90" y="509" width="80" height="48" as="geometry" />
        </mxCell>
        <mxCell id="yiPBfoOaf0CJgp_YEPqx-16" value="schedule" style="rounded=1;whiteSpace=wrap;html=1;" vertex="1" parent="1">
          <mxGeometry x="184" y="509" width="80" height="48" as="geometry" />
        </mxCell>
        <mxCell id="yiPBfoOaf0CJgp_YEPqx-18" value="" style="endArrow=none;dashed=1;html=1;entryX=0.995;entryY=0.544;entryDx=0;entryDy=0;entryPerimeter=0;exitX=0.005;exitY=0.549;exitDx=0;exitDy=0;exitPerimeter=0;" edge="1" parent="1" source="yiPBfoOaf0CJgp_YEPqx-10" target="yiPBfoOaf0CJgp_YEPqx-10">
          <mxGeometry width="50" height="50" relative="1" as="geometry">
            <mxPoint x="80" y="572" as="sourcePoint" />
            <mxPoint x="130" y="569" as="targetPoint" />
          </mxGeometry>
        </mxCell>
        <mxCell id="yiPBfoOaf0CJgp_YEPqx-20" value="" style="endArrow=none;dashed=1;html=1;" edge="1" parent="1">
          <mxGeometry width="50" height="50" relative="1" as="geometry">
            <mxPoint x="79" y="439" as="sourcePoint" />
            <mxPoint x="285" y="439" as="targetPoint" />
          </mxGeometry>
        </mxCell>
        <mxCell id="yiPBfoOaf0CJgp_YEPqx-22" value="redis" style="rounded=1;whiteSpace=wrap;html=1;" vertex="1" parent="1">
          <mxGeometry x="90" y="585" width="80" height="48" as="geometry" />
        </mxCell>
        <mxCell id="yiPBfoOaf0CJgp_YEPqx-23" value="mysql" style="rounded=1;whiteSpace=wrap;html=1;" vertex="1" parent="1">
          <mxGeometry x="184" y="585" width="80" height="48" as="geometry" />
        </mxCell>
        <mxCell id="yiPBfoOaf0CJgp_YEPqx-24" value="ES" style="rounded=1;whiteSpace=wrap;html=1;" vertex="1" parent="1">
          <mxGeometry x="90" y="656" width="80" height="48" as="geometry" />
        </mxCell>
        <mxCell id="yiPBfoOaf0CJgp_YEPqx-25" value="" style="rounded=1;whiteSpace=wrap;html=1;" vertex="1" parent="1">
          <mxGeometry x="447.5" y="365" width="201" height="363" as="geometry" />
        </mxCell>
        <mxCell id="yiPBfoOaf0CJgp_YEPqx-26" value="后端应用" style="rounded=1;whiteSpace=wrap;html=1;" vertex="1" parent="1">
          <mxGeometry x="456.5" y="382" width="80" height="48" as="geometry" />
        </mxCell>
        <mxCell id="yiPBfoOaf0CJgp_YEPqx-27" value="前端应用" style="rounded=1;whiteSpace=wrap;html=1;" vertex="1" parent="1">
          <mxGeometry x="550.5" y="382" width="80" height="48" as="geometry" />
        </mxCell>
        <mxCell id="yiPBfoOaf0CJgp_YEPqx-28" value="eureka" style="rounded=1;whiteSpace=wrap;html=1;" vertex="1" parent="1">
          <mxGeometry x="456.5" y="443" width="80" height="48" as="geometry" />
        </mxCell>
        <mxCell id="yiPBfoOaf0CJgp_YEPqx-29" value="apollo" style="rounded=1;whiteSpace=wrap;html=1;" vertex="1" parent="1">
          <mxGeometry x="550.5" y="443" width="80" height="48" as="geometry" />
        </mxCell>
        <mxCell id="yiPBfoOaf0CJgp_YEPqx-30" value="rocketmq" style="rounded=1;whiteSpace=wrap;html=1;" vertex="1" parent="1">
          <mxGeometry x="456.5" y="504" width="80" height="48" as="geometry" />
        </mxCell>
        <mxCell id="yiPBfoOaf0CJgp_YEPqx-31" value="schedule" style="rounded=1;whiteSpace=wrap;html=1;" vertex="1" parent="1">
          <mxGeometry x="550.5" y="504" width="80" height="48" as="geometry" />
        </mxCell>
        <mxCell id="yiPBfoOaf0CJgp_YEPqx-32" value="" style="endArrow=none;dashed=1;html=1;entryX=0.995;entryY=0.544;entryDx=0;entryDy=0;entryPerimeter=0;exitX=0.005;exitY=0.549;exitDx=0;exitDy=0;exitPerimeter=0;" edge="1" source="yiPBfoOaf0CJgp_YEPqx-25" target="yiPBfoOaf0CJgp_YEPqx-25" parent="1">
          <mxGeometry width="50" height="50" relative="1" as="geometry">
            <mxPoint x="446.5" y="567" as="sourcePoint" />
            <mxPoint x="496.5" y="564" as="targetPoint" />
          </mxGeometry>
        </mxCell>
        <mxCell id="yiPBfoOaf0CJgp_YEPqx-33" value="" style="endArrow=none;dashed=1;html=1;" edge="1" parent="1">
          <mxGeometry width="50" height="50" relative="1" as="geometry">
            <mxPoint x="445.5" y="434" as="sourcePoint" />
            <mxPoint x="651.5" y="434" as="targetPoint" />
          </mxGeometry>
        </mxCell>
        <mxCell id="yiPBfoOaf0CJgp_YEPqx-34" value="redis" style="rounded=1;whiteSpace=wrap;html=1;" vertex="1" parent="1">
          <mxGeometry x="456.5" y="580" width="80" height="48" as="geometry" />
        </mxCell>
        <mxCell id="yiPBfoOaf0CJgp_YEPqx-35" value="mysql" style="rounded=1;whiteSpace=wrap;html=1;" vertex="1" parent="1">
          <mxGeometry x="550.5" y="580" width="80" height="48" as="geometry" />
        </mxCell>
        <mxCell id="yiPBfoOaf0CJgp_YEPqx-36" value="ES" style="rounded=1;whiteSpace=wrap;html=1;" vertex="1" parent="1">
          <mxGeometry x="456.5" y="651" width="80" height="48" as="geometry" />
        </mxCell>
        <mxCell id="yiPBfoOaf0CJgp_YEPqx-37" value="" style="verticalLabelPosition=bottom;verticalAlign=top;html=1;shape=mxgraph.basic.plaque;dx=6;" vertex="1" parent="1">
          <mxGeometry x="321" y="213" width="100" height="60" as="geometry" />
        </mxCell>
        <mxCell id="yiPBfoOaf0CJgp_YEPqx-38" value="维护页" style="text;html=1;strokeColor=none;fillColor=none;align=center;verticalAlign=middle;whiteSpace=wrap;rounded=0;" vertex="1" parent="1">
          <mxGeometry x="351" y="233" width="40" height="20" as="geometry" />
        </mxCell>
      </root>
    </mxGraphModel>
  </diagram>
</mxfile>
